<svg xmlns="http://www.w3.org/2000/svg" viewBox="0 0 1807.25 695">
<!-- GENERATED ASSET - do not hand-edit.
     Stacked lockup for the CTMD link card: renci-ctmd-lockup.svg, unmodified,
     above "Clinical Trial Management Dashboard" (Montserrat Regular) and
     "View proposal assignments →" (Montserrat SemiBold), outlined so the
     figure renders identically without the font installed.
     The lockup's clear-space rule (half its height on all sides) applies to
     the lockup within this asset, not to the text lines beneath it. -->
<title>RENCI CTMD</title>
<path d="M151.42,259.43H174v25.09q10.1-14.83,21.3-22.17A42,42,0,0,1,218.63,255q9.15,0,19.57,5.83l-11.52,18.62c-4.63-2-8.52-3-11.67-3q-11.06,0-21.31,9.09T178.09,313.7Q174,328.39,174,373V431.1H151.42Z" transform="translate(-151.42 -109.09)" fill="#00758d"/><path d="M386,371.23l18.17,9.54q-9,17.52-20.65,28.32a81.67,81.67,0,0,1-26.35,16.38q-14.64,5.63-33.12,5.63-41,0-64.09-26.86t-23.11-60.73a89.54,89.54,0,0,1,19.56-56.79Q281.24,255,322.84,255q42.81,0,68.4,32.47,18.18,22.93,18.48,57.26H259q.6,29.16,18.64,47.84t44.53,18.66a72,72,0,0,0,24.9-4.45A65.35,65.35,0,0,0,367.68,395q8.47-7.37,18.34-23.75m0-45.1q-4.31-17.25-12.57-27.56A59.43,59.43,0,0,0,351.65,282a66.76,66.76,0,0,0-28.51-6.31q-24.66,0-42.38,15.85Q267.82,303,261.19,326.13Z" transform="translate(-151.42 -109.09)" fill="#00758d"/><path d="M428.55,259.43h22.09V290.2Q463.9,272.53,480,263.77A72.16,72.16,0,0,1,515,255q19.25,0,34.16,9.78a58.28,58.28,0,0,1,22,26.35q7.09,16.58,7.1,51.59V431.1H556.2V349.22q0-29.67-2.45-39.62-3.84-17-14.74-25.63t-28.39-8.59a54.5,54.5,0,0,0-35.91,13.24,62.24,62.24,0,0,0-20.92,32.82q-3.15,12.78-3.15,46.71v63H428.55Z" transform="translate(-151.42 -109.09)" fill="#00758d"/><path d="M767.5,294.11l-17.09,10.62q-22.14-29.4-60.42-29.4-30.6,0-50.8,19.68T619,342.82a67.88,67.88,0,0,0,9.3,34.44,65.12,65.12,0,0,0,25.52,25.06,74.26,74.26,0,0,0,36.37,8.93q36.89,0,60.25-29.4l17.09,11.23a80.79,80.79,0,0,1-32.24,28.05q-20.25,10-46.1,10-39.74,0-65.88-25.25t-26.17-61.41a87.74,87.74,0,0,1,12.23-45.17A86.29,86.29,0,0,1,643,266.72Q664.37,255,690.84,255a102,102,0,0,1,32.09,5.08,89.44,89.44,0,0,1,26.25,13.23,72,72,0,0,1,18.32,20.78" transform="translate(-151.42 -109.09)" fill="#00758d"/><rect x="634.6" y="145.93" width="22.66" height="176.08" fill="#00758d"/><polygon points="526.02 0 657.26 108.43 657.26 129.21 634.66 129.21 526.02 0" fill="#00758d"/>
<polygon points="0 0 12.27 10.2 12.27 12.1 10.2 12.1 0 0" fill="#00758d" transform="translate(764.25 137.06) scale(15.2847 15.2847)"/>
<path d="M1151.48 323.83Q1131.45 323.83 1114.52 317.16Q1097.59 310.50 1085.18 298.35Q1072.78 286.19 1065.78 269.84Q1058.79 253.49 1058.79 233.97Q1058.79 214.45 1065.78 198.10Q1072.78 181.75 1085.31 169.59Q1097.84 157.44 1114.77 150.78Q1131.70 144.11 1151.73 144.11Q1171.62 144.11 1188.71 150.84Q1205.80 157.56 1217.68 170.86L1203.06 185.17Q1192.71 174.41 1179.94 169.35Q1167.17 164.29 1152.54 164.29Q1137.32 164.29 1124.28 169.47Q1111.24 174.64 1101.65 184.03Q1092.05 193.42 1086.70 206.16Q1081.35 218.90 1081.35 233.97Q1081.35 249.04 1086.70 261.78Q1092.05 274.52 1101.65 283.91Q1111.24 293.30 1124.28 298.47Q1137.32 303.65 1152.54 303.65Q1167.17 303.65 1179.94 298.54Q1192.71 293.43 1203.06 282.52L1217.68 296.83Q1205.80 310.13 1188.71 316.98Q1171.62 323.83 1151.48 323.83M1309.75 322.01L1287.25 322.01L1287.25 165.61L1226.30 165.61L1226.30 145.93L1370.70 145.93L1370.70 165.61L1309.75 165.61L1309.75 322.01M1420.73 322.01L1398.98 322.01L1398.98 145.93L1417.59 145.93L1492.20 272.28L1565.89 145.93L1584.50 145.93L1584.65 322.01L1562.90 322.01L1562.75 188.93L1497 300.25L1486.48 300.25L1420.73 189.68L1420.73 322.01M1712.45 322.01L1639.21 322.01L1639.21 145.93L1712.45 145.93Q1740.62 145.93 1762.04 157.05Q1783.45 168.16 1795.35 188.03Q1807.25 207.91 1807.25 233.97Q1807.25 260.03 1795.35 279.91Q1783.45 299.78 1762.04 310.89Q1740.62 322.01 1712.45 322.01M1661.87 165.61L1661.87 302.33L1711.13 302.33Q1733.59 302.33 1750.05 293.70Q1766.50 285.06 1775.59 269.61Q1784.68 254.17 1784.68 233.97Q1784.68 213.52 1775.59 198.20Q1766.50 182.88 1750.05 174.24Q1733.59 165.61 1711.13 165.61" fill="#00758d"/>
<path d="M236.21 509.04L236.21 509.04Q230.37 509.04 225.46 507.09Q220.55 505.13 216.89 501.58Q213.24 498.04 211.21 493.24Q209.18 488.44 209.18 482.75L209.18 482.75Q209.18 477.06 211.21 472.26Q213.24 467.46 216.89 463.92Q220.55 460.37 225.50 458.42Q230.45 456.46 236.28 456.46L236.28 456.46Q241.97 456.46 246.88 458.34Q251.79 460.23 255.19 463.99L255.19 463.99L251.72 467.46Q248.54 464.21 244.70 462.77Q240.86 461.33 236.43 461.33L236.43 461.33Q230.22 461.33 225.28 464.14Q220.33 466.95 217.45 471.78Q214.57 476.62 214.57 482.75L214.57 482.75Q214.57 488.88 217.45 493.72Q220.33 498.56 225.28 501.36Q230.22 504.17 236.43 504.17L236.43 504.17Q240.86 504.17 244.70 502.69Q248.54 501.21 251.72 497.96L251.72 497.96L255.19 501.44Q251.79 505.20 246.84 507.12Q241.89 509.04 236.21 509.04ZM270.25 508.60L265.01 508.60L265.01 453.80L270.25 453.80L270.25 508.60ZM290.12 508.60L284.88 508.60L284.88 469.75L290.12 469.75L290.12 508.60ZM287.54 461.26L287.54 461.26Q285.91 461.26 284.80 460.15Q283.69 459.04 283.69 457.49L283.69 457.49Q283.69 456.02 284.80 454.91Q285.91 453.80 287.54 453.80L287.54 453.80Q289.16 453.80 290.27 454.83Q291.38 455.87 291.38 457.42L291.38 457.42Q291.38 459.04 290.27 460.15Q289.16 461.26 287.54 461.26ZM309.99 508.60L304.74 508.60L304.74 469.75L309.77 469.75L309.77 476.92Q311.83 473.37 315.64 471.41Q319.44 469.46 324.54 469.46L324.54 469.46Q331.63 469.46 336.06 473.59Q340.49 477.73 340.49 486.07L340.49 486.07L340.49 508.60L335.24 508.60L335.24 486.59Q335.24 480.46 332.18 477.32Q329.11 474.18 323.58 474.18L323.58 474.18Q317.37 474.18 313.68 477.88Q309.99 481.57 309.99 488.22L309.99 488.22L309.99 508.60ZM359.99 508.60L354.74 508.60L354.74 469.75L359.99 469.75L359.99 508.60ZM357.40 461.26L357.40 461.26Q355.78 461.26 354.67 460.15Q353.56 459.04 353.56 457.49L353.56 457.49Q353.56 456.02 354.67 454.91Q355.78 453.80 357.40 453.80L357.40 453.80Q359.03 453.80 360.13 454.83Q361.24 455.87 361.24 457.42L361.24 457.42Q361.24 459.04 360.13 460.15Q359.03 461.26 357.40 461.26ZM390.71 508.97L390.71 508.97Q384.87 508.97 380.37 506.42Q375.86 503.87 373.28 499.41Q370.69 494.94 370.69 489.18L370.69 489.18Q370.69 483.42 373.28 478.95Q375.86 474.48 380.37 471.97Q384.87 469.46 390.71 469.46L390.71 469.46Q395.66 469.46 399.65 471.38Q403.63 473.30 405.92 477.14L405.92 477.14L402.01 479.80Q400.01 476.84 397.06 475.44Q394.11 474.04 390.71 474.04L390.71 474.04Q386.43 474.04 383.14 475.92Q379.85 477.80 377.93 481.20Q376.01 484.60 376.01 489.18L376.01 489.18Q376.01 493.76 377.93 497.15Q379.85 500.55 383.14 502.43Q386.43 504.32 390.71 504.32L390.71 504.32Q394.11 504.32 397.06 502.95Q400.01 501.58 402.01 498.63L402.01 498.63L405.92 501.29Q403.63 505.05 399.65 507.01Q395.66 508.97 390.71 508.97ZM445.51 508.60L440.49 508.60L440.49 502.54Q438.71 505.50 435.32 507.23Q431.92 508.97 427.12 508.97L427.12 508.97Q420.55 508.97 416.74 505.83Q412.94 502.69 412.94 497.67L412.94 497.67Q412.94 494.72 414.38 492.20Q415.82 489.69 419.11 488.18Q422.39 486.67 427.93 486.67L427.93 486.67L440.27 486.67L440.27 484.30Q440.27 479.35 437.50 476.69Q434.73 474.04 429.26 474.04L429.26 474.04Q425.49 474.04 422.10 475.29Q418.70 476.55 416.34 478.62L416.34 478.62L413.97 474.70Q416.93 472.19 421.06 470.82Q425.20 469.46 429.78 469.46L429.78 469.46Q437.31 469.46 441.41 473.22Q445.51 476.99 445.51 484.52L445.51 484.52L445.51 508.60ZM440.27 496.93L440.27 496.93L440.27 490.58L428.08 490.58Q422.47 490.58 420.29 492.57Q418.11 494.57 418.11 497.52L418.11 497.52Q418.11 500.85 420.69 502.84Q423.28 504.83 427.93 504.83L427.93 504.83Q432.36 504.83 435.54 502.80Q438.71 500.77 440.27 496.93ZM465.01 508.60L459.76 508.60L459.76 453.80L465.01 453.80L465.01 508.60ZM515.60 508.60L510.13 508.60L510.13 461.63L491.96 461.63L491.96 456.90L533.76 456.90L533.76 461.63L515.60 461.63L515.60 508.60ZM546.61 508.60L541.37 508.60L541.37 469.75L546.39 469.75L546.39 477.29Q550.16 469.46 560.94 469.46L560.94 469.46L560.94 474.55Q560.57 474.55 560.28 474.52Q559.98 474.48 559.69 474.48L559.69 474.48Q553.56 474.48 550.09 478.21Q546.61 481.94 546.61 488.81L546.61 488.81L546.61 508.60ZM576.23 508.60L570.99 508.60L570.99 469.75L576.23 469.75L576.23 508.60ZM573.65 461.26L573.65 461.26Q572.02 461.26 570.91 460.15Q569.81 459.04 569.81 457.49L569.81 457.49Q569.81 456.02 570.91 454.91Q572.02 453.80 573.65 453.80L573.65 453.80Q575.27 453.80 576.38 454.83Q577.49 455.87 577.49 457.42L577.49 457.42Q577.49 459.04 576.38 460.15Q575.27 461.26 573.65 461.26ZM620.17 508.60L615.15 508.60L615.15 502.54Q613.38 505.50 609.98 507.23Q606.58 508.97 601.78 508.97L601.78 508.97Q595.21 508.97 591.41 505.83Q587.60 502.69 587.60 497.67L587.60 497.67Q587.60 494.72 589.04 492.20Q590.48 489.69 593.77 488.18Q597.06 486.67 602.60 486.67L602.60 486.67L614.93 486.67L614.93 484.30Q614.93 479.35 612.16 476.69Q609.39 474.04 603.93 474.04L603.93 474.04Q600.16 474.04 596.76 475.29Q593.36 476.55 591.00 478.62L591.00 478.62L588.64 474.70Q591.59 472.19 595.73 470.82Q599.86 469.46 604.44 469.46L604.44 469.46Q611.98 469.46 616.07 473.22Q620.17 476.99 620.17 484.52L620.17 484.52L620.17 508.60ZM614.93 496.93L614.93 496.93L614.93 490.58L602.74 490.58Q597.13 490.58 594.95 492.57Q592.77 494.57 592.77 497.52L592.77 497.52Q592.77 500.85 595.36 502.84Q597.94 504.83 602.60 504.83L602.60 504.83Q607.03 504.83 610.20 502.80Q613.38 500.77 614.93 496.93ZM639.67 508.60L634.43 508.60L634.43 453.80L639.67 453.80L639.67 508.60ZM680.00 508.60L674.75 508.60L674.75 456.90L679.26 456.90L701.71 495.23L723.94 456.90L728.44 456.90L728.44 508.60L723.20 508.60L723.20 467.32L702.89 502.03L700.31 502.03L680.00 467.61L680.00 508.60ZM773.49 508.60L768.47 508.60L768.47 502.54Q766.70 505.50 763.30 507.23Q759.91 508.97 755.10 508.97L755.10 508.97Q748.53 508.97 744.73 505.83Q740.92 502.69 740.92 497.67L740.92 497.67Q740.92 494.72 742.36 492.20Q743.81 489.69 747.09 488.18Q750.38 486.67 755.92 486.67L755.92 486.67L768.25 486.67L768.25 484.30Q768.25 479.35 765.48 476.69Q762.71 474.04 757.25 474.04L757.25 474.04Q753.48 474.04 750.08 475.29Q746.69 476.55 744.32 478.62L744.32 478.62L741.96 474.70Q744.91 472.19 749.05 470.82Q753.18 469.46 757.76 469.46L757.76 469.46Q765.30 469.46 769.40 473.22Q773.49 476.99 773.49 484.52L773.49 484.52L773.49 508.60ZM768.25 496.93L768.25 496.93L768.25 490.58L756.06 490.58Q750.45 490.58 748.27 492.57Q746.09 494.57 746.09 497.52L746.09 497.52Q746.09 500.85 748.68 502.84Q751.26 504.83 755.92 504.83L755.92 504.83Q760.35 504.83 763.52 502.80Q766.70 500.77 768.25 496.93ZM792.99 508.60L787.75 508.60L787.75 469.75L792.77 469.75L792.77 476.92Q794.84 473.37 798.64 471.41Q802.45 469.46 807.54 469.46L807.54 469.46Q814.63 469.46 819.06 473.59Q823.49 477.73 823.49 486.07L823.49 486.07L823.49 508.60L818.25 508.60L818.25 486.59Q818.25 480.46 815.18 477.32Q812.12 474.18 806.58 474.18L806.58 474.18Q800.38 474.18 796.68 477.88Q792.99 481.57 792.99 488.22L792.99 488.22L792.99 508.60ZM867.07 508.60L862.05 508.60L862.05 502.54Q860.27 505.50 856.88 507.23Q853.48 508.97 848.68 508.97L848.68 508.97Q842.10 508.97 838.30 505.83Q834.50 502.69 834.50 497.67L834.50 497.67Q834.50 494.72 835.94 492.20Q837.38 489.69 840.66 488.18Q843.95 486.67 849.49 486.67L849.49 486.67L861.82 486.67L861.82 484.30Q861.82 479.35 859.05 476.69Q856.28 474.04 850.82 474.04L850.82 474.04Q847.05 474.04 843.66 475.29Q840.26 476.55 837.89 478.62L837.89 478.62L835.53 474.70Q838.49 472.19 842.62 470.82Q846.76 469.46 851.34 469.46L851.34 469.46Q858.87 469.46 862.97 473.22Q867.07 476.99 867.07 484.52L867.07 484.52L867.07 508.60ZM861.82 496.93L861.82 496.93L861.82 490.58L849.64 490.58Q844.02 490.58 841.85 492.57Q839.67 494.57 839.67 497.52L839.67 497.52Q839.67 500.85 842.25 502.84Q844.84 504.83 849.49 504.83L849.49 504.83Q853.92 504.83 857.10 502.80Q860.27 500.77 861.82 496.93ZM897.86 523.30L897.86 523.30Q892.55 523.30 887.67 521.75Q882.80 520.19 879.77 517.31L879.77 517.31L882.43 513.33Q885.16 515.76 889.19 517.20Q893.21 518.64 897.72 518.64L897.72 518.64Q905.10 518.64 908.57 515.17Q912.04 511.70 912.04 504.54L912.04 504.54L912.04 499.66Q909.61 503.28 905.66 505.20Q901.70 507.12 896.90 507.12L896.90 507.12Q891.37 507.12 886.93 504.72Q882.50 502.32 879.95 498.08Q877.41 493.83 877.41 488.22L877.41 488.22Q877.41 482.68 879.95 478.43Q882.50 474.18 886.93 471.82Q891.37 469.46 896.90 469.46L896.90 469.46Q901.78 469.46 905.80 471.41Q909.83 473.37 912.27 477.14L912.27 477.14L912.27 469.75L917.29 469.75L917.29 503.87Q917.29 513.92 912.38 518.61Q907.47 523.30 897.86 523.30ZM897.42 502.47L897.42 502.47Q901.70 502.47 905.03 500.66Q908.35 498.85 910.27 495.64Q912.19 492.43 912.19 488.22L912.19 488.22Q912.19 484.01 910.27 480.83Q908.35 477.66 905.03 475.85Q901.70 474.04 897.42 474.04L897.42 474.04Q893.14 474.04 889.81 475.85Q886.49 477.66 884.61 480.83Q882.72 484.01 882.72 488.22L882.72 488.22Q882.72 492.43 884.61 495.64Q886.49 498.85 889.81 500.66Q893.14 502.47 897.42 502.47ZM948.45 508.97L948.45 508.97Q942.40 508.97 937.82 506.42Q933.24 503.87 930.66 499.41Q928.07 494.94 928.07 489.18L928.07 489.18Q928.07 483.42 930.54 478.95Q933.02 474.48 937.30 471.97Q941.59 469.46 947.05 469.46L947.05 469.46Q952.52 469.46 956.76 471.93Q961.01 474.41 963.45 478.87Q965.88 483.34 965.88 489.18L965.88 489.18Q965.88 489.55 965.85 489.95Q965.81 490.36 965.81 490.80L965.81 490.80L933.24 490.80Q933.54 494.79 935.57 497.85Q937.60 500.92 940.96 502.62Q944.32 504.32 948.60 504.32L948.60 504.32Q952.15 504.32 955.21 503.06Q958.28 501.81 960.49 499.22L960.49 499.22L963.45 502.62Q960.79 505.72 956.95 507.34Q953.11 508.97 948.45 508.97ZM933.31 486.89L933.31 486.89L960.86 486.89Q960.57 483.05 958.72 480.17Q956.87 477.29 953.85 475.62Q950.82 473.96 947.05 473.96L947.05 473.96Q943.28 473.96 940.29 475.59Q937.30 477.21 935.46 480.13Q933.61 483.05 933.31 486.89ZM981.84 508.60L976.59 508.60L976.59 469.75L981.61 469.75L981.61 476.84Q983.68 473.30 987.34 471.38Q990.99 469.46 995.87 469.46L995.87 469.46Q1000.67 469.46 1004.32 471.53Q1007.98 473.59 1009.68 477.66L1009.68 477.66Q1011.75 473.89 1015.77 471.67Q1019.80 469.46 1025.04 469.46L1025.04 469.46Q1032.13 469.46 1036.41 473.59Q1040.70 477.73 1040.70 486.07L1040.70 486.07L1040.70 508.60L1035.45 508.60L1035.45 486.59Q1035.45 480.46 1032.50 477.32Q1029.55 474.18 1024.30 474.18L1024.30 474.18Q1018.32 474.18 1014.81 477.88Q1011.30 481.57 1011.30 488.22L1011.30 488.22L1011.30 508.60L1006.06 508.60L1006.06 486.59Q1006.06 480.46 1003.11 477.32Q1000.15 474.18 994.83 474.18L994.83 474.18Q988.93 474.18 985.38 477.88Q981.84 481.57 981.84 488.22L981.84 488.22L981.84 508.60ZM1071.42 508.97L1071.42 508.97Q1065.37 508.97 1060.79 506.42Q1056.21 503.87 1053.62 499.41Q1051.04 494.94 1051.04 489.18L1051.04 489.18Q1051.04 483.42 1053.51 478.95Q1055.99 474.48 1060.27 471.97Q1064.55 469.46 1070.02 469.46L1070.02 469.46Q1075.48 469.46 1079.73 471.93Q1083.98 474.41 1086.41 478.87Q1088.85 483.34 1088.85 489.18L1088.85 489.18Q1088.85 489.55 1088.81 489.95Q1088.78 490.36 1088.78 490.80L1088.78 490.80L1056.21 490.80Q1056.50 494.79 1058.53 497.85Q1060.56 500.92 1063.93 502.62Q1067.29 504.32 1071.57 504.32L1071.57 504.32Q1075.11 504.32 1078.18 503.06Q1081.24 501.81 1083.46 499.22L1083.46 499.22L1086.41 502.62Q1083.75 505.72 1079.91 507.34Q1076.07 508.97 1071.42 508.97ZM1056.28 486.89L1056.28 486.89L1083.83 486.89Q1083.53 483.05 1081.69 480.17Q1079.84 477.29 1076.81 475.62Q1073.78 473.96 1070.02 473.96L1070.02 473.96Q1066.25 473.96 1063.26 475.59Q1060.27 477.21 1058.42 480.13Q1056.58 483.05 1056.28 486.89ZM1104.80 508.60L1099.56 508.60L1099.56 469.75L1104.58 469.75L1104.58 476.92Q1106.65 473.37 1110.45 471.41Q1114.26 469.46 1119.35 469.46L1119.35 469.46Q1126.44 469.46 1130.87 473.59Q1135.30 477.73 1135.30 486.07L1135.30 486.07L1135.30 508.60L1130.06 508.60L1130.06 486.59Q1130.06 480.46 1127.00 477.32Q1123.93 474.18 1118.39 474.18L1118.39 474.18Q1112.19 474.18 1108.50 477.88Q1104.80 481.57 1104.80 488.22L1104.80 488.22L1104.80 508.60ZM1161.82 508.97L1161.82 508.97Q1156.35 508.97 1153.40 505.98Q1150.44 502.99 1150.44 497.67L1150.44 497.67L1150.44 474.18L1143.50 474.18L1143.50 469.75L1150.44 469.75L1150.44 461.26L1155.69 461.26L1155.69 469.75L1167.51 469.75L1167.51 474.18L1155.69 474.18L1155.69 497.37Q1155.69 504.46 1162.41 504.46L1162.41 504.46Q1165.88 504.46 1168.17 502.47L1168.17 502.47L1170.02 506.24Q1168.47 507.64 1166.29 508.30Q1164.11 508.97 1161.82 508.97ZM1221.05 508.60L1200.00 508.60L1200.00 456.90L1221.05 456.90Q1229.32 456.90 1235.56 460.19Q1241.80 463.48 1245.27 469.31Q1248.74 475.14 1248.74 482.75L1248.74 482.75Q1248.74 490.36 1245.27 496.19Q1241.80 502.03 1235.56 505.31Q1229.32 508.60 1221.05 508.60L1221.05 508.60ZM1205.47 461.63L1205.47 503.87L1220.75 503.87Q1227.62 503.87 1232.68 501.18Q1237.74 498.48 1240.55 493.72Q1243.35 488.95 1243.35 482.75L1243.35 482.75Q1243.35 476.55 1240.55 471.78Q1237.74 467.02 1232.68 464.32Q1227.62 461.63 1220.75 461.63L1220.75 461.63L1205.47 461.63ZM1289.22 508.60L1284.19 508.60L1284.19 502.54Q1282.42 505.50 1279.02 507.23Q1275.63 508.97 1270.83 508.97L1270.83 508.97Q1264.25 508.97 1260.45 505.83Q1256.65 502.69 1256.65 497.67L1256.65 497.67Q1256.65 494.72 1258.09 492.20Q1259.53 489.69 1262.81 488.18Q1266.10 486.67 1271.64 486.67L1271.64 486.67L1283.97 486.67L1283.97 484.30Q1283.97 479.35 1281.20 476.69Q1278.43 474.04 1272.97 474.04L1272.97 474.04Q1269.20 474.04 1265.80 475.29Q1262.41 476.55 1260.04 478.62L1260.04 478.62L1257.68 474.70Q1260.64 472.19 1264.77 470.82Q1268.91 469.46 1273.49 469.46L1273.49 469.46Q1281.02 469.46 1285.12 473.22Q1289.22 476.99 1289.22 484.52L1289.22 484.52L1289.22 508.60ZM1283.97 496.93L1283.97 496.93L1283.97 490.58L1271.79 490.58Q1266.17 490.58 1264.00 492.57Q1261.82 494.57 1261.82 497.52L1261.82 497.52Q1261.82 500.85 1264.40 502.84Q1266.99 504.83 1271.64 504.83L1271.64 504.83Q1276.07 504.83 1279.25 502.80Q1282.42 500.77 1283.97 496.93ZM1313.88 508.97L1313.88 508.97Q1309.08 508.97 1304.80 507.60Q1300.52 506.24 1298.08 504.17L1298.08 504.17L1300.44 500.03Q1302.73 501.88 1306.42 503.13Q1310.12 504.39 1314.25 504.39L1314.25 504.39Q1319.79 504.39 1322.23 502.65Q1324.67 500.92 1324.67 498.04L1324.67 498.04Q1324.67 495.90 1323.30 494.68Q1321.93 493.46 1319.68 492.83Q1317.43 492.20 1314.73 491.76Q1312.04 491.32 1309.38 490.73Q1306.72 490.14 1304.47 488.99Q1302.21 487.85 1300.85 485.85Q1299.48 483.86 1299.48 480.54L1299.48 480.54Q1299.48 475.73 1303.47 472.60Q1307.46 469.46 1314.84 469.46L1314.84 469.46Q1318.61 469.46 1322.38 470.45Q1326.14 471.45 1328.58 473.08L1328.58 473.08L1326.29 477.29Q1323.71 475.51 1320.75 474.74Q1317.80 473.96 1314.84 473.96L1314.84 473.96Q1309.60 473.96 1307.16 475.81Q1304.73 477.66 1304.73 480.39L1304.73 480.39Q1304.65 482.60 1306.02 483.86Q1307.38 485.11 1309.64 485.82Q1311.89 486.52 1314.59 486.96Q1317.28 487.40 1319.98 488.03Q1322.67 488.66 1324.92 489.73Q1327.18 490.80 1328.54 492.76Q1329.91 494.72 1329.91 497.89L1329.91 497.89Q1329.91 502.91 1325.70 505.94Q1321.49 508.97 1313.88 508.97ZM1344.83 508.60L1339.58 508.60L1339.58 453.80L1344.83 453.80L1344.83 476.55Q1346.97 473.15 1350.70 471.30Q1354.43 469.46 1359.38 469.46L1359.38 469.46Q1366.47 469.46 1370.90 473.59Q1375.33 477.73 1375.33 486.07L1375.33 486.07L1375.33 508.60L1370.09 508.60L1370.09 486.59Q1370.09 480.46 1367.02 477.32Q1363.96 474.18 1358.42 474.18L1358.42 474.18Q1352.21 474.18 1348.52 477.88Q1344.83 481.57 1344.83 488.22L1344.83 488.22L1344.83 508.60ZM1409.60 508.97L1409.60 508.97Q1404.80 508.97 1400.88 506.90Q1396.97 504.83 1394.61 500.99L1394.61 500.99L1394.61 508.60L1389.58 508.60L1389.58 453.80L1394.83 453.80L1394.83 477.14Q1397.26 473.37 1401.11 471.41Q1404.95 469.46 1409.60 469.46L1409.60 469.46Q1415.14 469.46 1419.53 471.93Q1423.93 474.41 1426.44 478.84Q1428.95 483.27 1428.95 489.18L1428.95 489.18Q1428.95 495.08 1426.44 499.52Q1423.93 503.95 1419.53 506.46Q1415.14 508.97 1409.60 508.97ZM1409.23 504.32L1409.23 504.32Q1413.37 504.32 1416.61 502.43Q1419.86 500.55 1421.78 497.12Q1423.70 493.68 1423.70 489.18L1423.70 489.18Q1423.70 484.67 1421.78 481.27Q1419.86 477.88 1416.61 475.96Q1413.37 474.04 1409.23 474.04L1409.23 474.04Q1405.09 474.04 1401.81 475.96Q1398.52 477.88 1396.64 481.27Q1394.75 484.67 1394.75 489.18L1394.75 489.18Q1394.75 493.68 1396.64 497.12Q1398.52 500.55 1401.81 502.43Q1405.09 504.32 1409.23 504.32ZM1455.54 508.97L1455.54 508.97Q1449.85 508.97 1445.38 506.42Q1440.91 503.87 1438.33 499.41Q1435.74 494.94 1435.74 489.18L1435.74 489.18Q1435.74 483.42 1438.33 478.95Q1440.91 474.48 1445.38 471.97Q1449.85 469.46 1455.54 469.46L1455.54 469.46Q1461.22 469.46 1465.65 471.97Q1470.08 474.48 1472.67 478.95Q1475.25 483.42 1475.25 489.18L1475.25 489.18Q1475.25 494.94 1472.67 499.41Q1470.08 503.87 1465.65 506.42Q1461.22 508.97 1455.54 508.97ZM1455.54 504.32L1455.54 504.32Q1459.67 504.32 1462.92 502.43Q1466.17 500.55 1468.05 497.12Q1469.94 493.68 1469.94 489.18L1469.94 489.18Q1469.94 484.67 1468.05 481.27Q1466.17 477.88 1462.92 475.96Q1459.67 474.04 1455.54 474.04L1455.54 474.04Q1451.40 474.04 1448.11 475.96Q1444.83 477.88 1442.94 481.27Q1441.06 484.67 1441.06 489.18L1441.06 489.18Q1441.06 493.68 1442.94 497.12Q1444.83 500.55 1448.11 502.43Q1451.40 504.32 1455.54 504.32ZM1515.28 508.60L1510.26 508.60L1510.26 502.54Q1508.49 505.50 1505.09 507.23Q1501.69 508.97 1496.89 508.97L1496.89 508.97Q1490.32 508.97 1486.52 505.83Q1482.71 502.69 1482.71 497.67L1482.71 497.67Q1482.71 494.72 1484.15 492.20Q1485.59 489.69 1488.88 488.18Q1492.17 486.67 1497.71 486.67L1497.71 486.67L1510.04 486.67L1510.04 484.30Q1510.04 479.35 1507.27 476.69Q1504.50 474.04 1499.04 474.04L1499.04 474.04Q1495.27 474.04 1491.87 475.29Q1488.47 476.55 1486.11 478.62L1486.11 478.62L1483.75 474.70Q1486.70 472.19 1490.84 470.82Q1494.97 469.46 1499.55 469.46L1499.55 469.46Q1507.09 469.46 1511.18 473.22Q1515.28 476.99 1515.28 484.52L1515.28 484.52L1515.28 508.60ZM1510.04 496.93L1510.04 496.93L1510.04 490.58L1497.85 490.58Q1492.24 490.58 1490.06 492.57Q1487.88 494.57 1487.88 497.52L1487.88 497.52Q1487.88 500.85 1490.47 502.84Q1493.05 504.83 1497.71 504.83L1497.71 504.83Q1502.14 504.83 1505.31 502.80Q1508.49 500.77 1510.04 496.93ZM1534.78 508.60L1529.54 508.60L1529.54 469.75L1534.56 469.75L1534.56 477.29Q1538.33 469.46 1549.11 469.46L1549.11 469.46L1549.11 474.55Q1548.74 474.55 1548.44 474.52Q1548.15 474.48 1547.85 474.48L1547.85 474.48Q1541.72 474.48 1538.25 478.21Q1534.78 481.94 1534.78 488.81L1534.78 488.81L1534.78 508.60ZM1574.59 508.97L1574.59 508.97Q1569.05 508.97 1564.69 506.46Q1560.33 503.95 1557.79 499.52Q1555.24 495.08 1555.24 489.18L1555.24 489.18Q1555.24 483.27 1557.79 478.84Q1560.33 474.41 1564.69 471.93Q1569.05 469.46 1574.59 469.46L1574.59 469.46Q1579.24 469.46 1583.12 471.41Q1587.00 473.37 1589.36 477.14L1589.36 477.14L1589.36 453.80L1594.60 453.80L1594.60 508.60L1589.58 508.60L1589.58 500.99Q1587.22 504.83 1583.30 506.90Q1579.39 508.97 1574.59 508.97ZM1575.03 504.32L1575.03 504.32Q1579.09 504.32 1582.38 502.43Q1585.67 500.55 1587.55 497.12Q1589.43 493.68 1589.43 489.18L1589.43 489.18Q1589.43 484.67 1587.55 481.27Q1585.67 477.88 1582.38 475.96Q1579.09 474.04 1575.03 474.04L1575.03 474.04Q1570.90 474.04 1567.61 475.96Q1564.32 477.88 1562.44 481.27Q1560.56 484.67 1560.56 489.18L1560.56 489.18Q1560.56 493.68 1562.44 497.12Q1564.32 500.55 1567.61 502.43Q1570.90 504.32 1575.03 504.32Z" fill="#5f6368"/>
<path d="M404.70 680.85L395.80 680.85L374.53 632.20L384.33 632.20L400.53 669.66L416.86 632.20L425.90 632.20L404.70 680.85ZM439.94 680.85L431.25 680.85L431.25 643.74L439.94 643.74L439.94 680.85ZM435.63 637.62L435.63 637.62Q433.20 637.62 431.63 636.09Q430.07 634.56 430.07 632.41L430.07 632.41Q430.07 630.25 431.63 628.72Q433.20 627.19 435.63 627.19L435.63 627.19Q438.06 627.19 439.63 628.62Q441.19 630.04 441.19 632.20L441.19 632.20Q441.19 634.49 439.63 636.05Q438.06 637.62 435.63 637.62ZM468.79 681.34L468.79 681.34Q462.60 681.34 457.98 678.87Q453.36 676.40 450.82 672.13Q448.28 667.86 448.28 662.29L448.28 662.29Q448.28 656.73 450.75 652.46Q453.22 648.18 457.56 645.75Q461.91 643.32 467.47 643.32L467.47 643.32Q472.89 643.32 477.13 645.68Q481.37 648.04 483.80 652.39Q486.23 656.73 486.23 662.50L486.23 662.50Q486.23 663.06 486.20 663.75Q486.16 664.45 486.09 665.07L486.09 665.07L456.97 665.07Q457.73 669.11 460.93 671.54Q464.13 673.97 469.00 673.97L469.00 673.97Q475.18 673.97 479.07 669.94L479.07 669.94L483.73 675.29Q478.59 681.34 468.79 681.34ZM456.90 659.31L456.90 659.31L477.96 659.31Q477.41 655.27 474.56 652.77Q471.71 650.27 467.47 650.27L467.47 650.27Q463.23 650.27 460.38 652.74Q457.53 655.20 456.90 659.31ZM511.12 680.85L502.78 680.85L489.15 643.74L497.36 643.74L507.16 671.12L517.37 643.74L524.67 643.74L534.68 671.19L544.76 643.74L552.48 643.74L538.78 680.85L530.44 680.85L520.85 655.20L511.12 680.85ZM598.21 681.34L598.21 681.34Q594.67 681.34 591.61 680.09Q588.55 678.84 586.33 676.34L586.33 676.34L586.33 694.34L577.64 694.34L577.64 643.74L585.91 643.74L585.91 648.60Q588.13 645.89 591.30 644.60Q594.46 643.32 598.21 643.32L598.21 643.32Q603.64 643.32 607.88 645.65Q612.12 647.98 614.58 652.25Q617.05 656.53 617.05 662.29L617.05 662.29Q617.05 668.06 614.58 672.34Q612.12 676.61 607.88 678.98Q603.64 681.34 598.21 681.34ZM597.24 673.90L597.24 673.90Q600.37 673.90 602.84 672.48Q605.30 671.05 606.76 668.45Q608.22 665.84 608.22 662.29L608.22 662.29Q608.22 658.75 606.76 656.14Q605.30 653.54 602.84 652.11Q600.37 650.69 597.24 650.69L597.24 650.69Q594.11 650.69 591.61 652.11Q589.11 653.54 587.65 656.14Q586.19 658.75 586.19 662.29L586.19 662.29Q586.19 665.84 587.65 668.45Q589.11 671.05 591.61 672.48Q594.11 673.90 597.24 673.90ZM634.01 680.85L625.32 680.85L625.32 643.74L633.59 643.74L633.59 649.16Q637.42 643.32 646.80 643.32L646.80 643.32L646.80 651.59Q646.24 651.52 645.76 651.45Q645.27 651.38 644.79 651.38L644.79 651.38Q639.85 651.38 636.93 654.27Q634.01 657.15 634.01 662.85L634.01 662.85L634.01 680.85ZM671.20 681.34L671.20 681.34Q665.50 681.34 661.05 678.87Q656.60 676.40 654.03 672.13Q651.46 667.86 651.46 662.29L651.46 662.29Q651.46 656.73 654.03 652.46Q656.60 648.18 661.05 645.75Q665.50 643.32 671.20 643.32L671.20 643.32Q676.97 643.32 681.45 645.75Q685.93 648.18 688.47 652.46Q691.01 656.73 691.01 662.29L691.01 662.29Q691.01 667.86 688.47 672.13Q685.93 676.40 681.45 678.87Q676.97 681.34 671.20 681.34ZM671.20 673.90L671.20 673.90Q675.99 673.90 679.12 670.77Q682.25 667.65 682.25 662.29L682.25 662.29Q682.25 656.94 679.12 653.81Q675.99 650.69 671.20 650.69L671.20 650.69Q668.07 650.69 665.60 652.11Q663.14 653.54 661.68 656.14Q660.22 658.75 660.22 662.29L660.22 662.29Q660.22 665.84 661.68 668.45Q663.14 671.05 665.60 672.48Q668.07 673.90 671.20 673.90ZM719.92 681.34L719.92 681.34Q716.38 681.34 713.32 680.09Q710.26 678.84 708.04 676.34L708.04 676.34L708.04 694.34L699.35 694.34L699.35 643.74L707.62 643.74L707.62 648.60Q709.85 645.89 713.01 644.60Q716.17 643.32 719.92 643.32L719.92 643.32Q725.35 643.32 729.59 645.65Q733.83 647.98 736.29 652.25Q738.76 656.53 738.76 662.29L738.76 662.29Q738.76 668.06 736.29 672.34Q733.83 676.61 729.59 678.98Q725.35 681.34 719.92 681.34ZM718.95 673.90L718.95 673.90Q722.08 673.90 724.55 672.48Q727.01 671.05 728.47 668.45Q729.93 665.84 729.93 662.29L729.93 662.29Q729.93 658.75 728.47 656.14Q727.01 653.54 724.55 652.11Q722.08 650.69 718.95 650.69L718.95 650.69Q715.82 650.69 713.32 652.11Q710.82 653.54 709.36 656.14Q707.90 658.75 707.90 662.29L707.90 662.29Q707.90 665.84 709.36 668.45Q710.82 671.05 713.32 672.48Q715.82 673.90 718.95 673.90ZM763.72 681.34L763.72 681.34Q758.02 681.34 753.57 678.87Q749.12 676.40 746.55 672.13Q743.98 667.86 743.98 662.29L743.98 662.29Q743.98 656.73 746.55 652.46Q749.12 648.18 753.57 645.75Q758.02 643.32 763.72 643.32L763.72 643.32Q769.49 643.32 773.97 645.75Q778.45 648.18 780.99 652.46Q783.53 656.73 783.53 662.29L783.53 662.29Q783.53 667.86 780.99 672.13Q778.45 676.40 773.97 678.87Q769.49 681.34 763.72 681.34ZM763.72 673.90L763.72 673.90Q768.51 673.90 771.64 670.77Q774.77 667.65 774.77 662.29L774.77 662.29Q774.77 656.94 771.64 653.81Q768.51 650.69 763.72 650.69L763.72 650.69Q760.59 650.69 758.12 652.11Q755.65 653.54 754.19 656.14Q752.73 658.75 752.73 662.29L752.73 662.29Q752.73 665.84 754.19 668.45Q755.65 671.05 758.12 672.48Q760.59 673.90 763.72 673.90ZM803.34 681.34L803.34 681.34Q798.68 681.34 794.40 680.16Q790.13 678.98 787.63 677.17L787.63 677.17L790.96 670.57Q793.40 672.23 796.91 673.24Q800.42 674.25 803.89 674.25L803.89 674.25Q808.06 674.25 809.87 673.14Q811.68 672.03 811.68 670.15L811.68 670.15Q811.68 668.34 810.01 667.54Q808.34 666.74 805.73 666.33Q803.13 665.91 800.21 665.42Q797.29 664.94 794.68 663.89Q792.08 662.85 790.41 660.73Q788.74 658.61 788.74 654.93L788.74 654.93Q788.74 649.64 793.15 646.48Q797.57 643.32 805.07 643.32L805.07 643.32Q808.76 643.32 812.62 644.15Q816.47 644.99 818.98 646.52L818.98 646.52L815.64 653.12Q813.00 651.59 810.32 650.96Q807.65 650.34 805.00 650.34L805.00 650.34Q801.04 650.34 799.13 651.52Q797.22 652.70 797.22 654.51L797.22 654.51Q797.22 656.39 798.89 657.29Q800.56 658.19 803.16 658.61Q805.77 659.03 808.69 659.55Q811.61 660.07 814.21 661.11Q816.82 662.16 818.49 664.21Q820.16 666.26 820.16 669.87L820.16 669.87Q820.16 675.08 815.64 678.21Q811.12 681.34 803.34 681.34ZM858.74 680.85L850.53 680.85L850.53 676.40Q847.20 681.34 838.86 681.34L838.86 681.34Q832.46 681.34 828.74 678.21Q825.02 675.08 825.02 670.22L825.02 670.22Q825.02 667.09 826.52 664.59Q828.01 662.09 831.42 660.63Q834.82 659.17 840.45 659.17L840.45 659.17L850.05 659.17L850.05 658.61Q850.05 654.79 847.75 652.67Q845.46 650.55 840.80 650.55L840.80 650.55Q837.67 650.55 834.65 651.52Q831.63 652.49 829.54 654.23L829.54 654.23L826.14 647.91Q829.12 645.61 833.26 644.47Q837.40 643.32 841.84 643.32L841.84 643.32Q849.91 643.32 854.32 647.18Q858.74 651.03 858.74 659.10L858.74 659.10L858.74 680.85ZM850.05 669.25L850.05 669.25L850.05 664.94L841.08 664.94Q836.63 664.94 835.10 666.40Q833.57 667.86 833.57 669.87L833.57 669.87Q833.57 672.23 835.45 673.62Q837.33 675.01 840.66 675.01L840.66 675.01Q843.86 675.01 846.40 673.55Q848.93 672.10 850.05 669.25ZM878.55 680.85L869.86 680.85L869.86 629.28L878.55 629.28L878.55 680.85ZM940.20 680.85L932.00 680.85L932.00 676.40Q928.66 681.34 920.32 681.34L920.32 681.34Q913.93 681.34 910.21 678.21Q906.49 675.08 906.49 670.22L906.49 670.22Q906.49 667.09 907.98 664.59Q909.48 662.09 912.88 660.63Q916.29 659.17 921.92 659.17L921.92 659.17L931.51 659.17L931.51 658.61Q931.51 654.79 929.22 652.67Q926.92 650.55 922.27 650.55L922.27 650.55Q919.14 650.55 916.12 651.52Q913.09 652.49 911.01 654.23L911.01 654.23L907.60 647.91Q910.59 645.61 914.73 644.47Q918.86 643.32 923.31 643.32L923.31 643.32Q931.37 643.32 935.79 647.18Q940.20 651.03 940.20 659.10L940.20 659.10L940.20 680.85ZM931.51 669.25L931.51 669.25L931.51 664.94L922.55 664.94Q918.10 664.94 916.57 666.40Q915.04 667.86 915.04 669.87L915.04 669.87Q915.04 672.23 916.92 673.62Q918.79 675.01 922.13 675.01L922.13 675.01Q925.33 675.01 927.86 673.55Q930.40 672.10 931.51 669.25ZM962.79 681.34L962.79 681.34Q958.13 681.34 953.86 680.16Q949.58 678.98 947.08 677.17L947.08 677.17L950.42 670.57Q952.85 672.23 956.36 673.24Q959.87 674.25 963.35 674.25L963.35 674.25Q967.52 674.25 969.33 673.14Q971.13 672.03 971.13 670.15L971.13 670.15Q971.13 668.34 969.46 667.54Q967.80 666.74 965.19 666.33Q962.58 665.91 959.66 665.42Q956.74 664.94 954.14 663.89Q951.53 662.85 949.86 660.73Q948.19 658.61 948.19 654.93L948.19 654.93Q948.19 649.64 952.61 646.48Q957.02 643.32 964.53 643.32L964.53 643.32Q968.21 643.32 972.07 644.15Q975.93 644.99 978.43 646.52L978.43 646.52L975.09 653.12Q972.45 651.59 969.78 650.96Q967.10 650.34 964.46 650.34L964.46 650.34Q960.50 650.34 958.59 651.52Q956.67 652.70 956.67 654.51L956.67 654.51Q956.67 656.39 958.34 657.29Q960.01 658.19 962.62 658.61Q965.22 659.03 968.14 659.55Q971.06 660.07 973.67 661.11Q976.28 662.16 977.94 664.21Q979.61 666.26 979.61 669.87L979.61 669.87Q979.61 675.08 975.09 678.21Q970.58 681.34 962.79 681.34ZM998.59 681.34L998.59 681.34Q993.93 681.34 989.66 680.16Q985.38 678.98 982.88 677.17L982.88 677.17L986.22 670.57Q988.65 672.23 992.16 673.24Q995.67 674.25 999.15 674.25L999.15 674.25Q1003.32 674.25 1005.12 673.14Q1006.93 672.03 1006.93 670.15L1006.93 670.15Q1006.93 668.34 1005.26 667.54Q1003.59 666.74 1000.99 666.33Q998.38 665.91 995.46 665.42Q992.54 664.94 989.94 663.89Q987.33 662.85 985.66 660.73Q983.99 658.61 983.99 654.93L983.99 654.93Q983.99 649.64 988.41 646.48Q992.82 643.32 1000.33 643.32L1000.33 643.32Q1004.01 643.32 1007.87 644.15Q1011.73 644.99 1014.23 646.52L1014.23 646.52L1010.89 653.12Q1008.25 651.59 1005.57 650.96Q1002.90 650.34 1000.26 650.34L1000.26 650.34Q996.30 650.34 994.38 651.52Q992.47 652.70 992.47 654.51L992.47 654.51Q992.47 656.39 994.14 657.29Q995.81 658.19 998.42 658.61Q1001.02 659.03 1003.94 659.55Q1006.86 660.07 1009.47 661.11Q1012.07 662.16 1013.74 664.21Q1015.41 666.26 1015.41 669.87L1015.41 669.87Q1015.41 675.08 1010.89 678.21Q1006.37 681.34 998.59 681.34ZM1031.61 680.85L1022.92 680.85L1022.92 643.74L1031.61 643.74L1031.61 680.85ZM1027.30 637.62L1027.30 637.62Q1024.86 637.62 1023.30 636.09Q1021.74 634.56 1021.74 632.41L1021.74 632.41Q1021.74 630.25 1023.30 628.72Q1024.86 627.19 1027.30 627.19L1027.30 627.19Q1029.73 627.19 1031.29 628.62Q1032.86 630.04 1032.86 632.20L1032.86 632.20Q1032.86 634.49 1031.29 636.05Q1029.73 637.62 1027.30 637.62ZM1059.83 694.82L1059.83 694.82Q1054.61 694.82 1049.75 693.47Q1044.88 692.11 1041.75 689.54L1041.75 689.54L1045.65 683.01Q1048.08 685.02 1051.80 686.24Q1055.52 687.46 1059.34 687.46L1059.34 687.46Q1065.46 687.46 1068.31 684.64Q1071.16 681.83 1071.16 676.20L1071.16 676.20L1071.16 674.25Q1068.86 676.75 1065.67 677.97Q1062.47 679.19 1058.71 679.19L1058.71 679.19Q1053.43 679.19 1049.16 676.93Q1044.88 674.67 1042.41 670.64Q1039.95 666.60 1039.95 661.18L1039.95 661.18Q1039.95 655.83 1042.41 651.80Q1044.88 647.77 1049.16 645.54Q1053.43 643.32 1058.71 643.32L1058.71 643.32Q1062.61 643.32 1065.94 644.60Q1069.28 645.89 1071.57 648.67L1071.57 648.67L1071.57 643.74L1079.85 643.74L1079.85 675.22Q1079.85 685.30 1074.70 690.06Q1069.56 694.82 1059.83 694.82ZM1060.04 671.82L1060.04 671.82Q1064.97 671.82 1068.13 668.86Q1071.30 665.91 1071.30 661.18L1071.30 661.18Q1071.30 656.46 1068.13 653.57Q1064.97 650.69 1060.04 650.69L1060.04 650.69Q1055.03 650.69 1051.87 653.57Q1048.71 656.46 1048.71 661.18L1048.71 661.18Q1048.71 665.91 1051.87 668.86Q1055.03 671.82 1060.04 671.82ZM1099.93 680.85L1091.25 680.85L1091.25 643.74L1099.52 643.74L1099.52 648.53Q1101.67 645.96 1104.97 644.64Q1108.28 643.32 1112.31 643.32L1112.31 643.32Q1116.76 643.32 1120.27 645.06Q1123.78 646.79 1125.79 650.41Q1127.81 654.02 1127.81 659.58L1127.81 659.58L1127.81 680.85L1119.12 680.85L1119.12 660.70Q1119.12 655.76 1116.79 653.33Q1114.46 650.89 1110.29 650.89L1110.29 650.89Q1105.63 650.89 1102.78 653.71Q1099.93 656.53 1099.93 662.09L1099.93 662.09L1099.93 680.85ZM1147.55 680.85L1138.86 680.85L1138.86 643.74L1147.13 643.74L1147.13 648.39Q1149.22 645.89 1152.34 644.60Q1155.47 643.32 1159.30 643.32L1159.30 643.32Q1163.33 643.32 1166.59 644.85Q1169.86 646.38 1171.81 649.57L1171.81 649.57Q1174.03 646.65 1177.65 644.99Q1181.26 643.32 1185.71 643.32L1185.71 643.32Q1192.45 643.32 1196.69 647.28Q1200.93 651.24 1200.93 659.58L1200.93 659.58L1200.93 680.85L1192.24 680.85L1192.24 660.70Q1192.24 655.76 1190.05 653.33Q1187.86 650.89 1183.90 650.89L1183.90 650.89Q1179.59 650.89 1176.92 653.68Q1174.24 656.46 1174.24 662.02L1174.24 662.02L1174.24 680.85L1165.55 680.85L1165.55 660.70Q1165.55 655.76 1163.36 653.33Q1161.17 650.89 1157.21 650.89L1157.21 650.89Q1152.90 650.89 1150.22 653.68Q1147.55 656.46 1147.55 662.02L1147.55 662.02L1147.55 680.85ZM1229.50 681.34L1229.50 681.34Q1223.31 681.34 1218.69 678.87Q1214.07 676.40 1211.53 672.13Q1208.99 667.86 1208.99 662.29L1208.99 662.29Q1208.99 656.73 1211.46 652.46Q1213.93 648.18 1218.27 645.75Q1222.62 643.32 1228.18 643.32L1228.18 643.32Q1233.60 643.32 1237.84 645.68Q1242.08 648.04 1244.51 652.39Q1246.95 656.73 1246.95 662.50L1246.95 662.50Q1246.95 663.06 1246.91 663.75Q1246.88 664.45 1246.81 665.07L1246.81 665.07L1217.68 665.07Q1218.45 669.11 1221.65 671.54Q1224.84 673.97 1229.71 673.97L1229.71 673.97Q1235.89 673.97 1239.79 669.94L1239.79 669.94L1244.44 675.29Q1239.30 681.34 1229.50 681.34ZM1217.61 659.31L1217.61 659.31L1238.68 659.31Q1238.12 655.27 1235.27 652.77Q1232.42 650.27 1228.18 650.27L1228.18 650.27Q1223.94 650.27 1221.09 652.74Q1218.24 655.20 1217.61 659.31ZM1263.98 680.85L1255.29 680.85L1255.29 643.74L1263.56 643.74L1263.56 648.53Q1265.71 645.96 1269.02 644.64Q1272.32 643.32 1276.35 643.32L1276.35 643.32Q1280.80 643.32 1284.31 645.06Q1287.82 646.79 1289.83 650.41Q1291.85 654.02 1291.85 659.58L1291.85 659.58L1291.85 680.85L1283.16 680.85L1283.16 660.70Q1283.16 655.76 1280.83 653.33Q1278.50 650.89 1274.33 650.89L1274.33 650.89Q1269.68 650.89 1266.83 653.71Q1263.98 656.53 1263.98 662.09L1263.98 662.09L1263.98 680.85ZM1316.87 681.34L1316.87 681.34Q1310.76 681.34 1307.42 678.18Q1304.08 675.01 1304.08 668.83L1304.08 668.83L1304.08 650.69L1297.97 650.69L1297.97 643.74L1304.08 643.74L1304.08 635.53L1312.77 635.53L1312.77 643.74L1322.71 643.74L1322.71 650.69L1312.77 650.69L1312.77 668.62Q1312.77 671.33 1314.09 672.76Q1315.41 674.18 1317.92 674.18L1317.92 674.18Q1320.77 674.18 1322.78 672.65L1322.78 672.65L1325.21 678.84Q1323.62 680.09 1321.43 680.71Q1319.24 681.34 1316.87 681.34ZM1343.84 681.34L1343.84 681.34Q1339.19 681.34 1334.91 680.16Q1330.64 678.98 1328.13 677.17L1328.13 677.17L1331.47 670.57Q1333.90 672.23 1337.41 673.24Q1340.92 674.25 1344.40 674.25L1344.40 674.25Q1348.57 674.25 1350.38 673.14Q1352.18 672.03 1352.18 670.15L1352.18 670.15Q1352.18 668.34 1350.52 667.54Q1348.85 666.74 1346.24 666.33Q1343.63 665.91 1340.72 665.42Q1337.80 664.94 1335.19 663.89Q1332.58 662.85 1330.91 660.73Q1329.25 658.61 1329.25 654.93L1329.25 654.93Q1329.25 649.64 1333.66 646.48Q1338.07 643.32 1345.58 643.32L1345.58 643.32Q1349.27 643.32 1353.12 644.15Q1356.98 644.99 1359.48 646.52L1359.48 646.52L1356.15 653.12Q1353.51 651.59 1350.83 650.96Q1348.15 650.34 1345.51 650.34L1345.51 650.34Q1341.55 650.34 1339.64 651.52Q1337.73 652.70 1337.73 654.51L1337.73 654.51Q1337.73 656.39 1339.39 657.29Q1341.06 658.19 1343.67 658.61Q1346.28 659.03 1349.20 659.55Q1352.11 660.07 1354.72 661.11Q1357.33 662.16 1359.00 664.21Q1360.66 666.26 1360.66 669.87L1360.66 669.87Q1360.66 675.08 1356.15 678.21Q1351.63 681.34 1343.84 681.34ZM1416.36 680.55L1404.12 680.55L1415.91 661.53L1381.66 661.53L1381.66 651.41L1415.91 651.41L1404.12 632.50L1416.36 632.50L1432.37 656.41L1416.36 680.55Z" fill="#00758d"/>
</svg>
