<svg xmlns="http://www.w3.org/2000/svg" viewBox="0 0 1807.25 322.01">
<!-- GENERATED ASSET - do not hand-edit.
     "renci \ CTMD" lockup, drawn to RENCI's branding guide (2022-08).
     - Wordmark: renci-logo_teal.svg, unmodified.
     - Separator: the comet, at the size and spacing RENCI uses for the
       "RESEARCH \ ENGAGEMENT \ INNOVATION" tagline (7.00 gap / 11.52 cap).
     - "CTMD": Montserrat (the guide's official typeface, p.9) outlined at
       weight 462, interpolated from the 400 and 500 statics so its stems
       match the wordmark's stem-to-height ratio of 0.1287. Outlined rather than
       set as text so the figure renders identically without the font installed.
     Consumers must preserve clear space of half the lockup height on all sides. -->
<title>RENCI CTMD</title>
<path d="M151.42,259.43H174v25.09q10.1-14.83,21.3-22.17A42,42,0,0,1,218.63,255q9.15,0,19.57,5.83l-11.52,18.62c-4.63-2-8.52-3-11.67-3q-11.06,0-21.31,9.09T178.09,313.7Q174,328.39,174,373V431.1H151.42Z" transform="translate(-151.42 -109.09)" fill="#00758d"/><path d="M386,371.23l18.17,9.54q-9,17.52-20.65,28.32a81.67,81.67,0,0,1-26.35,16.38q-14.64,5.63-33.12,5.63-41,0-64.09-26.86t-23.11-60.73a89.54,89.54,0,0,1,19.56-56.79Q281.24,255,322.84,255q42.81,0,68.4,32.47,18.18,22.93,18.48,57.26H259q.6,29.16,18.64,47.84t44.53,18.66a72,72,0,0,0,24.9-4.45A65.35,65.35,0,0,0,367.68,395q8.47-7.37,18.34-23.75m0-45.1q-4.31-17.25-12.57-27.56A59.43,59.43,0,0,0,351.65,282a66.76,66.76,0,0,0-28.51-6.31q-24.66,0-42.38,15.85Q267.82,303,261.19,326.13Z" transform="translate(-151.42 -109.09)" fill="#00758d"/><path d="M428.55,259.43h22.09V290.2Q463.9,272.53,480,263.77A72.16,72.16,0,0,1,515,255q19.25,0,34.16,9.78a58.28,58.28,0,0,1,22,26.35q7.09,16.58,7.1,51.59V431.1H556.2V349.22q0-29.67-2.45-39.62-3.84-17-14.74-25.63t-28.39-8.59a54.5,54.5,0,0,0-35.91,13.24,62.24,62.24,0,0,0-20.92,32.82q-3.15,12.78-3.15,46.71v63H428.55Z" transform="translate(-151.42 -109.09)" fill="#00758d"/><path d="M767.5,294.11l-17.09,10.62q-22.14-29.4-60.42-29.4-30.6,0-50.8,19.68T619,342.82a67.88,67.88,0,0,0,9.3,34.44,65.12,65.12,0,0,0,25.52,25.06,74.26,74.26,0,0,0,36.37,8.93q36.89,0,60.25-29.4l17.09,11.23a80.79,80.79,0,0,1-32.24,28.05q-20.25,10-46.1,10-39.74,0-65.88-25.25t-26.17-61.41a87.74,87.74,0,0,1,12.23-45.17A86.29,86.29,0,0,1,643,266.72Q664.37,255,690.84,255a102,102,0,0,1,32.09,5.08,89.44,89.44,0,0,1,26.25,13.23,72,72,0,0,1,18.32,20.78" transform="translate(-151.42 -109.09)" fill="#00758d"/><rect x="634.6" y="145.93" width="22.66" height="176.08" fill="#00758d"/><polygon points="526.02 0 657.26 108.43 657.26 129.21 634.66 129.21 526.02 0" fill="#00758d"/>
<polygon points="0 0 12.27 10.2 12.27 12.1 10.2 12.1 0 0" fill="#00758d" transform="translate(764.25 137.06) scale(15.2847 15.2847)"/>
<path d="M1151.48 323.83Q1131.45 323.83 1114.52 317.16Q1097.59 310.50 1085.18 298.35Q1072.78 286.19 1065.78 269.84Q1058.79 253.49 1058.79 233.97Q1058.79 214.45 1065.78 198.10Q1072.78 181.75 1085.31 169.59Q1097.84 157.44 1114.77 150.78Q1131.70 144.11 1151.73 144.11Q1171.62 144.11 1188.71 150.84Q1205.80 157.56 1217.68 170.86L1203.06 185.17Q1192.71 174.41 1179.94 169.35Q1167.17 164.29 1152.54 164.29Q1137.32 164.29 1124.28 169.47Q1111.24 174.64 1101.65 184.03Q1092.05 193.42 1086.70 206.16Q1081.35 218.90 1081.35 233.97Q1081.35 249.04 1086.70 261.78Q1092.05 274.52 1101.65 283.91Q1111.24 293.30 1124.28 298.47Q1137.32 303.65 1152.54 303.65Q1167.17 303.65 1179.94 298.54Q1192.71 293.43 1203.06 282.52L1217.68 296.83Q1205.80 310.13 1188.71 316.98Q1171.62 323.83 1151.48 323.83M1309.75 322.01L1287.25 322.01L1287.25 165.61L1226.30 165.61L1226.30 145.93L1370.70 145.93L1370.70 165.61L1309.75 165.61L1309.75 322.01M1420.73 322.01L1398.98 322.01L1398.98 145.93L1417.59 145.93L1492.20 272.28L1565.89 145.93L1584.50 145.93L1584.65 322.01L1562.90 322.01L1562.75 188.93L1497 300.25L1486.48 300.25L1420.73 189.68L1420.73 322.01M1712.45 322.01L1639.21 322.01L1639.21 145.93L1712.45 145.93Q1740.62 145.93 1762.04 157.05Q1783.45 168.16 1795.35 188.03Q1807.25 207.91 1807.25 233.97Q1807.25 260.03 1795.35 279.91Q1783.45 299.78 1762.04 310.89Q1740.62 322.01 1712.45 322.01M1661.87 165.61L1661.87 302.33L1711.13 302.33Q1733.59 302.33 1750.05 293.70Q1766.50 285.06 1775.59 269.61Q1784.68 254.17 1784.68 233.97Q1784.68 213.52 1775.59 198.20Q1766.50 182.88 1750.05 174.24Q1733.59 165.61 1711.13 165.61" fill="#00758d"/>
</svg>
